Coordinates
version=1
nRows=5
nColumns=42
inDegrees=yes

Units are S.I. units (second, meters, Newtons, ...)
If the header above contains a line with 'inDegrees', this indicates whether rotational values are in degrees (yes) or radians (no).

endheader
time	pelvis_tilt	pelvis_list	pelvis_rotation	pelvis_tx	pelvis_ty	pelvis_tz	hip_flexion_r	hip_adduction_r	hip_rotation_r	knee_angle_r	knee_adduction_r	knee_angle_r_beta	ankle_angle_r	subtalar_angle_r	mtp_angle_r	hip_flexion_l	hip_adduction_l	hip_rotation_l	knee_angle_l	knee_adduction_l	knee_angle_l_beta	ankle_angle_l	subtalar_angle_l	mtp_angle_l	lumbar_extension	lumbar_bending	lumbar_rotation	arm_flex_r	arm_add_r	arm_rot_r	elbow_flex_r	pro_sup_r	wrist_flex_r	wrist_dev_r	arm_flex_l	arm_add_l	arm_rot_l	elbow_flex_l	pro_sup_l	wrist_flex_l	wrist_dev_l
      0.77000000	      5.65891741	     -1.50981095	    -11.07313482	     -0.83290814	      0.94691188	      0.28898939	    -22.91671555	      0.95578355	     -0.37363856	      2.71904662	      2.32852330	      0.04745632	     25.94762517	     16.08132362	     -7.70191114	     17.04948848	     -6.09643636	    -26.55126859	      1.23574623	      3.81462084	      0.02156784	      9.76099261	     20.03892367	     -7.70191114	    -16.36179427	      1.41531638	      7.92297854	      5.89317504	    -23.47024598	     19.28155569	     47.67510380	     90.00000001	      0.00000000	      0.00000000	    -19.61607268	     -7.46623844	      3.07280508	     38.57521901	     90.00000001	      0.00000000	      0.00000000
      0.78000000	      5.69739373	     -1.72502264	    -11.57752675	     -0.81831346	      0.94385227	      0.28962316	    -23.80714138	      0.84894137	      0.49587688	      3.05670992	      2.25504182	      0.05334965	     26.33379724	     15.57731962	     -7.68892104	     17.59012493	     -6.63212760	    -29.16133067	      1.31064879	      4.11942179	      0.02287514	     10.28200487	     24.56221330	     -7.68892104	    -16.39077267	      1.52033953	      8.40640323	      6.10032350	    -23.71542356	     19.58210195	     47.58825202	     90.00000001	      0.00000000	      0.00000000	    -20.05958117	     -7.15699105	      2.36384611	     38.79662596	     90.00000001	      0.00000000	      0.00000000
      0.79000000	      5.66110300	     -1.78378137	    -11.87891544	     -0.80353234	      0.94085328	      0.29000916	    -24.54799453	      0.60989951	      0.77520906	      3.50267440	      2.26170012	      0.06113320	     26.60009960	     15.54423355	     -7.68695896	     18.00942999	     -6.75231692	    -29.05834265	      1.15929252	      4.21575073	      0.02023347	     10.17040229	     24.81154961	     -7.68695896	    -16.28860267	      1.50334567	      8.70055887	      6.17016464	    -23.79445509	     19.53660374	     47.42669405	     90.00000001	      0.00000000	      0.00000000	    -20.44409188	     -7.07046518	      2.24138954	     38.98699566	     90.00000001	      0.00000000	      0.00000000
      0.80000000	      5.77083355	     -1.66347753	    -12.31602978	     -0.78852027	      0.93828722	      0.29030927	    -25.36297418	      0.03522945	      1.10053906	      4.04106113	      2.33106089	      0.07052982	     26.76832640	     15.48116308	     -7.68433264	     18.21582267	     -6.60840079	    -28.87344843	      1.27785855	      4.07727711	      0.02230284	     10.08037200	     24.85395616	     -7.68433264	    -16.30599465	      1.25291646	      9.02636487	      6.21953482	    -23.84667721	     19.50159225	     47.22529899	     90.00000001	      0.00000000	      0.00000000	    -20.76730650	     -6.95510533	      1.96554219	     39.15662043	     90.00000001	      0.00000000	      0.00000000
      0.81000000	      5.63044802	     -1.63334842	    -12.58474915	     -0.77317342	      0.93565904	      0.29057083	    -25.90020190	     -0.28595567	      1.18287090	      4.67653709	      2.27601602	      0.08162097	     26.65887076	     15.45418542	     -7.68325931	     18.73083414	     -6.66813391	    -28.40882577	      1.95461560	      4.00977113	      0.03411448	      9.97491850	     24.73280769	     -7.68325931	    -16.02787279	      1.17996230	      9.19340064	      6.07795309	    -23.89928195	     19.48148123	     47.15360923	     90.00000001	      0.00000000	      0.00000000	    -21.07022277	     -6.91796702	      1.92641073	     39.11657728	     90.00000001	      0.00000000	      0.00000000
